<?xml version="1.0" encoding="utf-8"?>
<!-- Generator: Adobe Illustrator 24.0.1, SVG Export Plug-In . SVG Version: 6.00 Build 0)  -->
<svg version="1.1" id="Layer_1" xmlns="http://www.w3.org/2000/svg" xmlns:xlink="http://www.w3.org/1999/xlink" x="0px" y="0px"
	 viewBox="0 0 511.3 117.6" style="enable-background:new 0 0 511.3 117.6;" xml:space="preserve">
<style type="text/css">
	.st0{fill:#3F5B42;}
</style>
<path class="st0" d="M113.8,31.1c11.9,0,24.9,6.5,27.1,21.9h-14.5c-2.1-5.8-6.4-8.5-12.6-8.5c-8.6,0-14.3,6.5-14.3,16.1
	c0,8.5,5.6,15.9,14.3,16c6.3,0,11.3-3.1,12.8-9.3h14.5C139,83.6,126.1,90,113.8,90c-14.7,0.1-29.5-9.8-29.6-29.4
	C84.4,41,99.2,31.1,113.8,31.1 M131.5,72.5c-3.6,7-10,10.4-17.6,10.4c-10.6,0-21.5-7.9-21.5-22.2c0-14.4,10.9-22.4,21.5-22.4
	c7.4,0,13.7,3.1,17.3,9.6h1c-3.8-6.8-10.5-10.3-18.3-10.3c-11.1,0-22.3,8.2-22.3,23.1c0,14.9,11.2,23.1,22.3,23.1
	c7.9,0,15.2-4,18.6-11.2H131.5z"/>
<path class="st0" d="M194,82.2h-22.7l-3.4,7.2h-14.4v-2.1L179.4,31h6.3l26,56.2v2.1h-14.4L194,82.2z M182.8,39.4h-0.5l-20.5,44.4
	h1.1l3.9-8.2h31.9l3.8,8.2h1.1L182.8,39.4z M167,74.8h31.2l-15.6-33.5h-0.1L167,74.8z M188.6,68.9h-12l5.9-13.3L188.6,68.9z"/>
<path class="st0" d="M278.5,31.6h5.3v57.8h-15.1V63.7l-12.3,12.8h-1.6l-12.2-12.8v25.7h-15.1V31.6h5.4l22.6,25L278.5,31.6z
	 M276.6,83.8V45.5h-1.2l-20,21.1l-19.8-21.1h-1.1v38.2h0.8V46.6l20,21.2l20.3-21.2v37.1H276.6z"/>
<path class="st0" d="M306.6,89.4V31.8H332c27.6,0.1,27.6,42.9,0,42.9h-10.6v14.7H306.6z M332.1,38h-18.6v45.9h0.9V68.5h17.7
	C350.3,68.4,350.4,38,332.1,38 M332.1,38.8c17,0,17.3,28.7,0,28.7h-17.7V38.8H332.1z M331.9,45c-3.5-0.1-7.2,0-10.5,0v16.5h10.5
	C340,61.4,340.5,45,331.9,45"/>
<path class="st0" d="M368.4,60.7c0-39.9,59.1-39.9,59.1,0C427.6,100.6,368.4,100.6,368.4,60.7 M420.4,60.7c0-31-44.7-30.9-44.7,0
	C375.7,91.7,420.4,91.7,420.4,60.7 M376.5,60.7c0,30.1,43.1,29.6,43.1,0C419.6,31.2,376.5,30.6,376.5,60.7 M412.5,60.7
	c0,20.9-28.9,20.9-28.9,0C383.6,39.9,412.5,39.9,412.5,60.7"/>
<path class="st0" d="M475.2,72.2c0-4-4.8-4.7-10.5-5c-12.5-0.9-20.8-5.2-20.9-17.7c-0.5-24.9,44.3-24.9,44,0h-14
	c0-7.7-15.5-7-16-0.2c-0.3,4.4,4,5.3,9.1,5.8c11.4,1.2,22.6,2.7,22.6,17.1c0,24.2-46.9,24.9-46.6-0.5h14.2
	C457.1,79.1,475.2,79,475.2,72.2 M479.9,44.2c-6.2-11.6-30-8.6-29.6,5.3c0.2,9.9,7.2,11.4,15.6,12c8,0.6,16,0.7,16,10.7
	c0,12.8-23.2,15.3-29.7,4.9h-1c5.9,11.8,31.6,9.1,31.6-4.9c0-10.2-8.3-11-16.7-11.6c-8.1-0.6-14.7-1.9-14.7-11.1
	c-0.1-12.9,21.4-15.6,27.6-5.3H479.9z"/>
<path class="st0" d="M44.8,91.5c-0.4,0-0.6-0.1-0.9-0.4c-1.4-1.3-6.2-5.8-11-12c-7.4-9.5-11.1-18.4-11.1-26.3
	c0-6.1,2.4-11.8,6.8-16.2c4.4-4.3,10.2-6.7,16.3-6.7h0c6.1,0,11.9,2.4,16.2,6.7c4.3,4.3,6.7,10.1,6.7,16.2c0,7.4-3.7,16.1-11.1,25.9
	c-5,6.6-10,11.5-11,12.4C45.4,91.4,45.1,91.5,44.8,91.5 M44.8,30.9c-5.9,0-11.4,2.3-15.6,6.4c-4.2,4.2-6.5,9.7-6.5,15.5
	c0,7.7,3.7,16.3,10.9,25.7c4.7,6.2,9.5,10.6,10.8,11.8l0.1,0.1c0.1,0.1,0.1,0.1,0.2,0.1c0,0,0.1,0,0.2-0.1c1-0.9,6-5.8,10.9-12.3
	c7.2-9.6,10.9-18.1,10.9-25.3c0-5.8-2.3-11.3-6.4-15.5C56.2,33.2,50.7,30.9,44.8,30.9"/>
<path class="st0" d="M45.3,54.3l0.3-0.1c0.5-0.1,0.9-0.2,1.3-0.4c0,0,0,0,0,0c0.1,0,0.1-0.1,0.2-0.1c0.2-0.1,0.5-0.2,0.7-0.4
	c0,0,0,0,0,0c0.8-0.5,1.5-1.1,2-1.9c0.1-0.1,0.1-0.2,0.2-0.3c0-0.1,0.1-0.1,0.1-0.2c0.6-1.1,0.9-2.4,0.9-3.9c0-5-3.4-7.3-6.6-7.3
	c0,0-0.1,0-0.1,0c-0.1,0-0.2,0-0.3,0c-3.5,0-7.3,2.3-7.3,7.3c0,3.5,2,6.1,5.2,7l0.3,0.1v18.1h6.8v-2.6h-3.8v-5.2h3.8v-2.6h-3.8V54.3
	z M44.1,51.7c-2.4,0-4.2-2-4.2-4.6c0-2.8,1.7-4.6,4.2-4.6c0.2,0,0.4,0,0.6,0c0.2,0,0.3,0,0.5,0.1c0.1,0,0.2,0,0.3,0.1
	c0.2,0.1,0.4,0.1,0.5,0.2c0.1,0,0.1,0.1,0.2,0.1c0.2,0.1,0.3,0.2,0.5,0.3c0,0,0.1,0.1,0.1,0.1c0.2,0.1,0.3,0.3,0.4,0.5
	c0,0.1,0.1,0.1,0.1,0.2c0.1,0.1,0.2,0.3,0.3,0.4c0,0.1,0.1,0.1,0.1,0.2c0.3,0.7,0.5,1.5,0.5,2.5c0,2.1-1,3.8-2.6,4.4
	C45.1,51.6,44.7,51.7,44.1,51.7"/>
</svg>
