<?xml version="1.0" encoding="utf-8"?>
<!-- Generator: Adobe Illustrator 24.0.1, SVG Export Plug-In . SVG Version: 6.00 Build 0)  -->
<svg version="1.1" id="Layer_1" xmlns="http://www.w3.org/2000/svg" xmlns:xlink="http://www.w3.org/1999/xlink" x="0px" y="0px"
	 viewBox="0 0 274.1 93.8" style="enable-background:new 0 0 274.1 93.8;" xml:space="preserve">
<style type="text/css">
	.st0{clip-path:url(#SVGID_2_);fill:#E4E1D8;}
	.st1{clip-path:url(#SVGID_2_);fill-rule:evenodd;clip-rule:evenodd;fill:#E4E1D8;}
</style>
<g>
	<defs>
		<polyline id="SVGID_1_" points="-67.1,-337.8 566.4,-337.8 566.4,115.8 -67.1,115.8 		"/>
	</defs>
	<clipPath id="SVGID_2_">
		<use xlink:href="#SVGID_1_"  style="overflow:visible;"/>
	</clipPath>
	<path class="st0" d="M38.9,64.7h3.8c1.3,0,2.5,0.4,2.5,1.9c0,1.5-1.2,1.9-2.5,1.9h-3v2.8h-0.8V64.7z M39.7,67.8h2.8
		c1.3,0,2-0.3,2-1.2c0-0.9-0.7-1.2-2-1.2h-2.8V67.8z"/>
	<path class="st0" d="M47,64.7h3.8c1,0,2.6,0.2,2.6,1.8c0,1.4-1.3,1.8-2.1,1.8l2.2,2.9h-1l-2.1-2.9h-2.6v2.9H47V64.7z M47.8,67.7
		h2.8c1.1,0,2-0.2,2-1.1c0-1-0.9-1.1-2-1.1h-2.8V67.7z"/>
	<path class="st0" d="M59.1,64.5c2.2,0,3.8,1.3,3.8,3.5c0,2.3-1.9,3.4-3.8,3.4c-1.9,0-3.8-1.1-3.8-3.4
		C55.3,65.8,56.9,64.5,59.1,64.5 M59.1,70.7c1.6,0,3-0.8,3-2.8c0-1.5-1.1-2.7-3-2.7c-1.9,0-3,1.2-3,2.7
		C56.1,69.9,57.5,70.7,59.1,70.7"/>
	<path class="st0" d="M64.9,64.7h3.8c1.3,0,2.5,0.4,2.5,1.9c0,1.5-1.2,1.9-2.5,1.9h-3v2.8h-0.8V64.7z M65.7,67.8h2.8
		c1.3,0,2-0.3,2-1.2c0-0.9-0.7-1.2-2-1.2h-2.8V67.8z"/>
	<rect x="73" y="64.7" class="st0" width="0.8" height="6.5"/>
	<polygon class="st0" points="76.2,64.7 82,64.7 82,65.4 77,65.4 77,67.5 81.2,67.5 81.2,68.2 77,68.2 77,70.5 82.1,70.5 82.1,71.2 
		76.2,71.2 	"/>
	<path class="st0" d="M83.8,64.7h3.2c2,0,3.5,1.1,3.5,3.2c0,2.7-2,3.3-3.7,3.3h-3V64.7z M84.6,70.5H87c0.6,0,2.8-0.1,2.8-2.7
		c0-1.9-1.4-2.5-2.7-2.5h-2.4V70.5z"/>
	<path class="st0" d="M95.2,64.7h1l3.4,6.5h-0.9l-0.8-1.7h-4.2l-0.9,1.7h-0.9L95.2,64.7z M97.4,68.8l-1.8-3.5l-1.8,3.5H97.4z"/>
	<path class="st0" d="M101.2,64.7h3.2c2,0,3.5,1.1,3.5,3.2c0,2.7-2,3.3-3.7,3.3h-3V64.7z M102,70.5h2.3c0.6,0,2.8-0.1,2.8-2.7
		c0-1.9-1.4-2.5-2.7-2.5H102V70.5z"/>
	<polygon class="st0" points="109.8,64.7 115.7,64.7 115.7,65.4 110.6,65.4 110.6,67.5 114.8,67.5 114.8,68.2 110.6,68.2 
		110.6,70.5 115.8,70.5 115.8,71.2 109.8,71.2 	"/>
	<path class="st0" d="M117.6,69.4c0.4,0.5,1,1.3,3,1.3c1,0,2.4-0.3,2.4-1.3c0-2-5.7-0.2-5.7-2.9c0-1.4,1.3-2,3.1-2
		c1.7,0,2.8,0.7,3.2,1.3l-0.6,0.5c-0.3-0.3-0.9-1.1-2.7-1.1c-1.3,0-2.2,0.3-2.2,1.2c0,2,5.7,0.1,5.7,3c0,1.1-1.1,2-3.3,2
		c-2.1,0-2.9-0.9-3.5-1.5L117.6,69.4z"/>
	<polygon class="st0" points="25.9,72.2 15.5,72.2 15.5,55.1 17.3,55.1 17.3,70.5 25.9,70.5 	"/>
	<polygon class="st0" points="32.7,72.2 27.6,72.2 27.6,70.5 30.9,70.5 30.9,56.9 19,56.9 19,55.1 32.7,55.1 	"/>
	<polygon class="st0" points="29.3,60.3 29.3,58.6 19,58.6 19,68.9 20.8,68.9 20.8,63.7 27.6,63.7 27.6,62 20.8,62 20.8,60.3 	"/>
	<polygon class="st0" points="38.8,56.1 40.1,56.1 40.1,61.5 44.8,61.5 44.8,62.6 38.8,62.6 	"/>
	<path class="st0" d="M49,56.1h1.5l3.2,6.5h-1.3l-0.7-1.5h-3.8l-0.7,1.5h-1.4L49,56.1z M51.1,60l-1.4-2.9L48.4,60H51.1z"/>
	<path class="st0" d="M61.8,59.8c0,2.1-1.3,3-3.5,3c-2.1,0-3.5-0.9-3.5-3v-3.7h1.3v3.6c0,1.1,0.4,2,2.2,2c1.8,0,2.2-0.9,2.2-2v-3.6
		h1.3V59.8z"/>
	<path class="st0" d="M64.1,56.1H68c1.5,0,2.7,0.4,2.7,2c0,1.2-0.9,1.9-1.8,1.9l2,2.7h-1.6l-1.9-2.6h-2v2.6h-1.3V56.1z M67.8,59
		c1,0,1.6-0.2,1.6-0.9c0-0.8-0.5-0.9-1.6-0.9h-2.5V59H67.8z"/>
	<path class="st0" d="M75.2,56.1h1.5l3.2,6.5h-1.3l-0.7-1.5h-3.8l-0.7,1.5H72L75.2,56.1z M77.3,60L76,57.1L74.6,60H77.3z"/>
	<polygon class="st0" points="85.3,56.1 91.3,56.1 91.3,57.2 86.6,57.2 86.6,58.7 90.7,58.7 90.7,59.8 86.6,59.8 86.6,62.6 
		85.3,62.6 	"/>
	<path class="st0" d="M94.5,56.1H96l3.2,6.5h-1.3l-0.7-1.5h-3.8l-0.7,1.5h-1.4L94.5,56.1z M96.6,60l-1.4-2.9L93.9,60H96.6z"/>
	<path class="st0" d="M100.6,56.1h3.9c1.5,0,2.7,0.4,2.7,2c0,1.2-0.9,1.9-1.8,1.9l2,2.7h-1.6l-1.9-2.6h-2v2.6h-1.3V56.1z M104.4,59
		c1,0,1.6-0.2,1.6-0.9c0-0.8-0.5-0.9-1.6-0.9h-2.5V59H104.4z"/>
	<rect x="109.4" y="56.1" class="st0" width="1.3" height="6.5"/>
	<path class="st0" d="M115.5,56.1h1.5l3.2,6.5h-1.3l-0.7-1.5h-3.8l-0.7,1.5h-1.4L115.5,56.1z M117.6,60l-1.4-2.9l-1.4,2.9H117.6z"/>
	<path class="st0" d="M126.7,58.1c-0.2-0.6-0.7-1.1-2.3-1.1c-0.9,0-1.7,0.2-1.7,0.8c0,0.3,0.2,0.6,1.5,0.7l1.5,0.2
		c1.5,0.2,2.3,0.8,2.3,1.9c0,1.5-1.5,2.1-3.2,2.1c-2.8,0-3.5-1.4-3.6-1.9l1.2-0.4c0.2,0.5,0.7,1.2,2.4,1.2c1,0,1.9-0.3,1.9-0.9
		c0-0.4-0.5-0.7-1.4-0.8l-1.6-0.2c-1.5-0.2-2.4-0.9-2.4-1.9c0-2,2.5-2,3-2c2.8,0,3.3,1.3,3.5,1.8L126.7,58.1z"/>
	<path class="st0" d="M44.7,38.3c-1.1,0-1.9,0.8-1.9,1.9c0,1,0.9,1.9,1.9,1.9c0.5,0,1-0.2,1.4-0.6l0.3,0.4c-0.5,0.4-1.1,0.7-1.8,0.7
		c-1.4,0-2.4-1.1-2.4-2.4c0-1.3,1.1-2.4,2.5-2.4c0.6,0,1.3,0.3,1.7,0.7l-0.3,0.4C45.8,38.5,45.2,38.3,44.7,38.3"/>
	<path class="st0" d="M52.5,40.2c0,1.3-1.1,2.4-2.5,2.4c-1.4,0-2.5-1.1-2.5-2.4c0-1.3,1.1-2.4,2.5-2.4
		C51.4,37.8,52.5,38.9,52.5,40.2 M48.1,40.2c0,1,0.9,1.9,1.9,1.9c1.1,0,1.9-0.8,1.9-1.9c0-1-0.9-1.9-1.9-1.9
		C49,38.3,48.1,39.1,48.1,40.2"/>
	<polygon class="st0" points="54.8,37.8 56.5,41.2 58.3,37.8 58.9,37.8 58.9,42.5 58.4,42.5 58.4,38.6 56.7,42 56.4,42 54.7,38.6 
		54.7,42.5 54.1,42.5 54.1,37.8 	"/>
	<polygon class="st0" points="64.2,37.8 64.2,38.3 61.6,38.3 61.6,39.9 63.9,39.9 63.9,40.4 61.6,40.4 61.6,42 64.3,42 64.3,42.5 
		61,42.5 61,37.8 	"/>
	<path class="st0" d="M69.2,42.5l-1-1.5c-0.1,0-0.2,0-0.3,0h-1.3v1.5h-0.5v-4.7h1.8c1.2,0,1.9,0.6,1.9,1.6c0,0.8-0.4,1.3-1.1,1.5
		l1.1,1.6H69.2z M67.9,40.5c0.9,0,1.3-0.4,1.3-1.1c0-0.7-0.5-1.1-1.3-1.1h-1.3v2.2H67.9z"/>
	<path class="st0" d="M73.7,38.3c-1.1,0-1.9,0.8-1.9,1.9c0,1,0.9,1.9,1.9,1.9c0.5,0,1-0.2,1.4-0.6l0.3,0.4c-0.5,0.4-1.1,0.7-1.8,0.7
		c-1.4,0-2.4-1.1-2.4-2.4c0-1.3,1.1-2.4,2.5-2.4c0.6,0,1.3,0.3,1.7,0.7l-0.3,0.4C74.7,38.5,74.2,38.3,73.7,38.3"/>
	<rect x="77" y="37.8" class="st0" width="0.5" height="4.7"/>
	<path class="st0" d="M82.7,41.3h-2.6l-0.5,1.2H79l2.1-4.7h0.6l2.1,4.7h-0.6L82.7,41.3z M82.4,40.8l-1.1-2.4l-1.1,2.4H82.4z"/>
	<polygon class="st0" points="85.7,37.8 85.7,42 87.8,42 87.8,42.5 85.2,42.5 85.2,37.8 	"/>
	<rect x="89.4" y="37.8" class="st0" width="0.5" height="4.7"/>
	<polygon class="st0" points="95.4,37.8 95.4,38.2 92.3,42 95.4,42 95.4,42.5 91.6,42.5 91.6,42.1 94.7,38.3 91.7,38.3 91.7,37.8 	
		"/>
	<path class="st0" d="M100.1,41.3h-2.6L97,42.5h-0.6l2.1-4.7h0.6l2.1,4.7h-0.6L100.1,41.3z M99.9,40.8l-1.1-2.4l-1.1,2.4H99.9z"/>
	<polygon class="st1" points="240.4,80.2 240.6,47.3 239.5,80.2 	"/>
	<polygon class="st1" points="238.5,80.2 239,48.9 237.5,80.2 	"/>
	<polygon class="st1" points="236.5,80.2 237.5,50.3 235.5,80.2 	"/>
	<polygon class="st1" points="234.8,80.2 235.9,51.9 233.8,80.2 	"/>
	<polygon class="st1" points="233,80.2 234.5,53.4 232.1,80.2 	"/>
	<polygon class="st1" points="231.2,80.2 232.8,55.1 230.3,80.2 	"/>
	<polygon class="st1" points="229.6,80.2 231.1,57.3 228.7,80.2 	"/>
	<polygon class="st1" points="241.8,80.2 241.7,46.9 252.4,57.3 255,80.2 	"/>
	<path class="st0" d="M174.6,62.3c-0.6,0.3-1.2,0.5-1.8,0.5c-0.7,0-1.3-0.2-1.7-0.7c-0.4-0.4-0.6-1-0.6-1.8c0-0.8,0.2-1.4,0.7-1.8
		c0.4-0.4,1-0.7,1.7-0.7c0.6,0,1.2,0.2,1.7,0.5v-1.6c-0.5-0.2-1.1-0.3-1.9-0.3c-1.2,0-2.2,0.4-2.9,1.1c-0.7,0.8-1.1,1.7-1.1,3
		c0,1.1,0.3,2.1,1,2.7c0.7,0.7,1.6,1,2.7,1c0.9,0,1.6-0.1,2.2-0.4V62.3z M180.2,60.9c0-1.5-0.8-2.3-2.3-2.3c-0.3,0-0.7,0-1.1,0.1
		c-0.4,0.1-0.7,0.2-1,0.3v1.3c0.6-0.4,1.2-0.6,1.8-0.6c0.6,0,1,0.3,1,0.9l-1.5,0.2c-1.2,0.2-1.9,0.8-1.9,1.8c0,0.5,0.1,0.9,0.5,1.2
		c0.3,0.3,0.7,0.4,1.2,0.4c0.7,0,1.2-0.3,1.6-0.9h0v0.8h1.6V60.9z M178.4,62.7c-0.2,0.2-0.5,0.3-0.8,0.3c-0.2,0-0.4-0.1-0.5-0.2
		c-0.1-0.1-0.2-0.3-0.2-0.5c0-0.4,0.3-0.7,0.8-0.7l1-0.1v0.4C178.7,62.2,178.6,62.5,178.4,62.7 M182.9,64.2c0.3,0,0.6,0,0.9-0.1
		c0.3-0.1,0.6-0.2,0.8-0.3c0.2-0.1,0.4-0.3,0.6-0.6c0.1-0.2,0.2-0.5,0.2-0.8c0-0.2,0-0.4-0.1-0.6s-0.2-0.3-0.3-0.4
		c-0.1-0.1-0.3-0.2-0.5-0.3c-0.2-0.1-0.4-0.2-0.6-0.3c-0.1,0-0.2-0.1-0.4-0.1c-0.1,0-0.2-0.1-0.3-0.1c-0.1-0.1-0.2-0.1-0.2-0.2
		c-0.1-0.1-0.1-0.2-0.1-0.3c0-0.1,0-0.1,0.1-0.2c0-0.1,0.1-0.1,0.2-0.1s0.2-0.1,0.3-0.1c0.1,0,0.2,0,0.3,0c0.2,0,0.5,0,0.7,0.1
		c0.2,0.1,0.5,0.2,0.7,0.3v-1.3c-0.2-0.1-0.5-0.1-0.7-0.2c-0.2,0-0.5-0.1-0.7-0.1c-0.3,0-0.6,0-0.9,0.1c-0.3,0.1-0.5,0.2-0.8,0.3
		c-0.2,0.1-0.4,0.3-0.5,0.5c-0.1,0.2-0.2,0.5-0.2,0.8c0,0.2,0,0.4,0.1,0.6c0.1,0.2,0.1,0.3,0.3,0.4s0.2,0.2,0.4,0.3
		c0.2,0.1,0.4,0.2,0.6,0.3c0.1,0.1,0.3,0.1,0.4,0.1c0.1,0,0.3,0.1,0.4,0.1c0.1,0.1,0.2,0.1,0.3,0.2c0.1,0.1,0.1,0.2,0.1,0.3
		c0,0.2-0.1,0.3-0.3,0.4c-0.2,0.1-0.4,0.1-0.7,0.1c-0.2,0-0.5,0-0.8-0.1c-0.3-0.1-0.5-0.2-0.8-0.4v1.4
		C181.7,64.1,182.3,64.2,182.9,64.2 M190.8,60.9c0-1.5-0.8-2.3-2.3-2.3c-0.3,0-0.7,0-1.1,0.1c-0.4,0.1-0.7,0.2-1,0.3v1.3
		c0.6-0.4,1.2-0.6,1.8-0.6c0.6,0,1,0.3,1,0.9l-1.5,0.2c-1.2,0.2-1.9,0.8-1.9,1.8c0,0.5,0.2,0.9,0.5,1.2c0.3,0.3,0.7,0.4,1.2,0.4
		c0.7,0,1.2-0.3,1.6-0.9h0v0.8h1.6V60.9z M189,62.7c-0.2,0.2-0.5,0.3-0.8,0.3c-0.2,0-0.4-0.1-0.5-0.2c-0.1-0.1-0.2-0.3-0.2-0.5
		c0-0.4,0.3-0.7,0.8-0.7l1-0.1v0.4C189.3,62.2,189.2,62.5,189,62.7 M199.8,62.7H197v-6.2h-1.7v7.6h4.5V62.7z M205.4,63.4
		c0.5-0.5,0.8-1.2,0.8-2.1c0-0.8-0.3-1.5-0.8-2c-0.5-0.5-1.2-0.8-2.1-0.8c-0.9,0-1.6,0.3-2.2,0.8c-0.5,0.5-0.8,1.2-0.8,2.1
		c0,0.9,0.3,1.6,0.8,2.1c0.5,0.5,1.2,0.8,2.1,0.8C204.2,64.2,204.9,64,205.4,63.4 M204.5,61.3c0,1.1-0.4,1.6-1.2,1.6
		c-0.8,0-1.3-0.5-1.3-1.6c0-0.5,0.1-0.9,0.3-1.2c0.2-0.3,0.5-0.4,0.9-0.4C204.1,59.8,204.5,60.3,204.5,61.3 M210.5,64.2
		c0.7,0,1.3-0.3,1.8-0.8c0.4-0.5,0.7-1.3,0.7-2.2c0-0.8-0.2-1.5-0.6-2c-0.4-0.5-0.9-0.7-1.6-0.7c-0.7,0-1.3,0.3-1.7,0.9h0v-0.8h-1.7
		v7.9h1.7v-3.1h0C209.3,64,209.8,64.2,210.5,64.2 M209.3,60.2c0.2-0.3,0.5-0.4,0.8-0.4c0.7,0,1.1,0.5,1.1,1.4c0,0.5-0.1,1-0.3,1.3
		c-0.2,0.3-0.5,0.4-0.9,0.4c-0.3,0-0.6-0.1-0.8-0.4c-0.2-0.2-0.3-0.5-0.3-0.9v-0.4C208.9,60.8,209.1,60.5,209.3,60.2 M218.9,61.2
		c0-0.8-0.2-1.4-0.6-1.9c-0.4-0.5-1-0.7-1.8-0.7c-0.8,0-1.4,0.3-1.9,0.8c-0.5,0.5-0.8,1.2-0.8,2.1c0,0.9,0.2,1.5,0.7,2
		c0.5,0.5,1.2,0.7,2,0.7c0.8,0,1.5-0.1,2-0.4v-1.2c-0.5,0.3-1,0.4-1.6,0.4c-0.9,0-1.4-0.4-1.5-1.2h3.5V61.2z M215.3,60.8
		c0-0.3,0.2-0.6,0.4-0.8c0.2-0.2,0.4-0.3,0.7-0.3c0.6,0,0.9,0.4,0.9,1.2H215.3z M224.2,62.9h-2.6l2.6-3.4v-0.8h-4.6v1.2h2.4
		l-2.7,3.5v0.7h4.9V62.9z"/>
	<path class="st0" d="M174.2,72.6c-0.4,0.2-0.8,0.3-1.3,0.3c-0.5,0-0.9-0.2-1.2-0.5c-0.3-0.3-0.4-0.7-0.4-1.2c0-0.5,0.2-1,0.5-1.3
		c0.3-0.3,0.7-0.5,1.2-0.5c0.5,0,0.9,0.1,1.2,0.3v-1.2c-0.4-0.1-0.8-0.2-1.3-0.2c-0.8,0-1.5,0.3-2,0.8c-0.5,0.5-0.8,1.2-0.8,2.1
		c0,0.8,0.2,1.4,0.7,1.9c0.5,0.5,1.1,0.7,1.9,0.7c0.6,0,1.1-0.1,1.5-0.3V72.6z M178.3,73.4c0.4-0.4,0.6-0.9,0.6-1.5
		c0-0.6-0.2-1.1-0.5-1.4c-0.4-0.4-0.9-0.5-1.5-0.5c-0.6,0-1.1,0.2-1.5,0.5c-0.4,0.4-0.6,0.8-0.6,1.5c0,0.6,0.2,1.1,0.5,1.4
		c0.4,0.4,0.9,0.5,1.5,0.5C177.4,73.9,178,73.7,178.3,73.4 M177.7,71.9c0,0.7-0.3,1.1-0.8,1.1c-0.6,0-0.9-0.4-0.9-1.1
		c0-0.3,0.1-0.6,0.2-0.8c0.2-0.2,0.4-0.3,0.6-0.3C177.4,70.9,177.7,71.2,177.7,71.9 M183.3,71.5c0-1-0.4-1.6-1.3-1.6
		c-0.5,0-0.9,0.2-1.2,0.7h0V70h-1.2v3.8h1.2v-2.2c0-0.2,0.1-0.4,0.2-0.6c0.1-0.2,0.3-0.2,0.5-0.2c0.4,0,0.6,0.3,0.6,0.9v2.1h1.2
		V71.5z M185.1,73.9c0.2,0,0.4,0,0.7-0.1c0.2,0,0.4-0.1,0.6-0.2c0.2-0.1,0.3-0.2,0.4-0.4c0.1-0.2,0.1-0.4,0.1-0.6
		c0-0.2,0-0.3-0.1-0.4c0-0.1-0.1-0.2-0.2-0.3c-0.1-0.1-0.2-0.2-0.3-0.2c-0.1-0.1-0.3-0.1-0.4-0.2c-0.1,0-0.2-0.1-0.3-0.1
		c-0.1,0-0.2-0.1-0.2-0.1c-0.1,0-0.1-0.1-0.2-0.1c0,0-0.1-0.1-0.1-0.2c0-0.1,0-0.1,0-0.1c0,0,0.1-0.1,0.1-0.1c0.1,0,0.1,0,0.2-0.1
		c0.1,0,0.1,0,0.2,0c0.2,0,0.3,0,0.5,0.1c0.2,0,0.3,0.1,0.5,0.2v-0.9c-0.2-0.1-0.3-0.1-0.5-0.1c-0.2,0-0.3,0-0.5,0
		c-0.2,0-0.4,0-0.6,0.1c-0.2,0-0.4,0.1-0.5,0.2c-0.2,0.1-0.3,0.2-0.4,0.4c-0.1,0.2-0.1,0.3-0.1,0.5c0,0.2,0,0.3,0.1,0.4
		c0,0.1,0.1,0.2,0.2,0.3c0.1,0.1,0.2,0.2,0.3,0.2c0.1,0.1,0.2,0.1,0.4,0.2c0.1,0,0.2,0.1,0.3,0.1c0.1,0,0.2,0.1,0.3,0.1
		c0.1,0,0.2,0.1,0.2,0.1c0.1,0,0.1,0.1,0.1,0.2c0,0.1-0.1,0.2-0.2,0.3c-0.1,0.1-0.3,0.1-0.5,0.1c-0.2,0-0.4,0-0.5-0.1
		c-0.2-0.1-0.4-0.1-0.6-0.3v0.9C184.3,73.9,184.7,73.9,185.1,73.9 M189.9,72.9c-0.1,0.1-0.3,0.1-0.4,0.1c-0.3,0-0.5-0.2-0.5-0.6
		v-1.5h0.9V70H189v-1.2l-1.2,0.3V70h-0.6v0.9h0.6v1.7c0,0.9,0.4,1.3,1.2,1.3c0.3,0,0.6,0,0.8-0.1V72.9z M193,70c-0.1,0-0.2,0-0.3,0
		c-0.5,0-0.8,0.3-1,0.8h0V70h-1.2v3.8h1.2V72c0-0.3,0.1-0.6,0.2-0.8c0.1-0.2,0.3-0.3,0.6-0.3c0.2,0,0.4,0,0.5,0.1V70z M197.1,70H196
		v2.2c0,0.3-0.1,0.5-0.2,0.6c-0.1,0.1-0.3,0.2-0.5,0.2c-0.4,0-0.6-0.3-0.6-0.8V70h-1.2v2.3c0,1.1,0.4,1.6,1.3,1.6
		c0.5,0,0.9-0.2,1.2-0.7h0v0.6h1.2V70z M201,72.8c-0.3,0.2-0.6,0.3-0.9,0.3c-0.3,0-0.6-0.1-0.8-0.3c-0.2-0.2-0.3-0.5-0.3-0.8
		c0-0.3,0.1-0.6,0.3-0.8c0.2-0.2,0.5-0.3,0.8-0.3c0.3,0,0.6,0.1,0.8,0.3v-1c-0.2-0.1-0.5-0.2-1-0.2c-0.6,0-1.2,0.2-1.5,0.6
		s-0.6,0.9-0.6,1.5c0,0.6,0.2,1,0.5,1.4c0.4,0.4,0.8,0.5,1.4,0.5c0.5,0,0.9-0.1,1.1-0.2V72.8z M204.6,72.8c-0.3,0.2-0.6,0.3-0.9,0.3
		c-0.3,0-0.6-0.1-0.8-0.3c-0.2-0.2-0.3-0.5-0.3-0.8c0-0.3,0.1-0.6,0.3-0.8c0.2-0.2,0.5-0.3,0.8-0.3c0.3,0,0.6,0.1,0.8,0.3v-1
		c-0.2-0.1-0.5-0.2-1-0.2c-0.6,0-1.2,0.2-1.5,0.6c-0.4,0.4-0.6,0.9-0.6,1.5c0,0.6,0.2,1,0.5,1.4c0.4,0.4,0.8,0.5,1.4,0.5
		c0.5,0,0.9-0.1,1.1-0.2V72.8z M206.5,69.3c0.1-0.1,0.2-0.3,0.2-0.4c0-0.2-0.1-0.3-0.2-0.4c-0.1-0.1-0.3-0.2-0.5-0.2
		c-0.2,0-0.4,0.1-0.5,0.2c-0.1,0.1-0.2,0.3-0.2,0.4c0,0.2,0.1,0.3,0.2,0.4c0.1,0.1,0.3,0.2,0.5,0.2
		C206.2,69.4,206.4,69.4,206.5,69.3 M206.6,70h-1.2v3.8h1.2V70z M210.9,73.4c0.4-0.4,0.6-0.9,0.6-1.5c0-0.6-0.2-1.1-0.5-1.4
		c-0.4-0.4-0.9-0.5-1.5-0.5c-0.6,0-1.1,0.2-1.5,0.5c-0.4,0.4-0.6,0.8-0.6,1.5c0,0.6,0.2,1.1,0.5,1.4c0.4,0.4,0.9,0.5,1.5,0.5
		C210,73.9,210.5,73.7,210.9,73.4 M210.2,71.9c0,0.7-0.3,1.1-0.8,1.1c-0.6,0-0.9-0.4-0.9-1.1c0-0.3,0.1-0.6,0.2-0.8
		c0.2-0.2,0.4-0.3,0.6-0.3C210,70.9,210.2,71.2,210.2,71.9 M215.9,71.5c0-1-0.4-1.6-1.3-1.6c-0.5,0-0.9,0.2-1.2,0.7h0V70h-1.2v3.8
		h1.2v-2.2c0-0.2,0.1-0.4,0.2-0.6c0.1-0.2,0.3-0.2,0.5-0.2c0.4,0,0.6,0.3,0.6,0.9v2.1h1.2V71.5z M220.2,71.8c0-0.6-0.2-1-0.5-1.3
		c-0.3-0.3-0.7-0.5-1.3-0.5c-0.5,0-1,0.2-1.3,0.6c-0.4,0.4-0.5,0.9-0.5,1.5c0,0.6,0.2,1.1,0.5,1.4c0.3,0.3,0.8,0.5,1.4,0.5
		c0.6,0,1-0.1,1.4-0.3v-0.8c-0.3,0.2-0.7,0.3-1.1,0.3c-0.7,0-1-0.3-1-0.8h2.5V71.8z M217.7,71.6c0-0.2,0.1-0.4,0.2-0.6
		c0.1-0.2,0.3-0.2,0.5-0.2c0.4,0,0.7,0.3,0.7,0.8H217.7z M221.8,73.9c0.2,0,0.4,0,0.7-0.1c0.2,0,0.4-0.1,0.6-0.2
		c0.2-0.1,0.3-0.2,0.4-0.4c0.1-0.2,0.1-0.4,0.1-0.6c0-0.2,0-0.3-0.1-0.4c0-0.1-0.1-0.2-0.2-0.3c-0.1-0.1-0.2-0.2-0.3-0.2
		c-0.1-0.1-0.3-0.1-0.4-0.2c-0.1,0-0.2-0.1-0.3-0.1c-0.1,0-0.2-0.1-0.2-0.1c-0.1,0-0.1-0.1-0.2-0.1c0,0-0.1-0.1-0.1-0.2
		c0-0.1,0-0.1,0-0.1c0,0,0.1-0.1,0.1-0.1c0.1,0,0.1,0,0.2-0.1c0.1,0,0.1,0,0.2,0c0.2,0,0.3,0,0.5,0.1c0.2,0,0.3,0.1,0.5,0.2v-0.9
		c-0.2-0.1-0.3-0.1-0.5-0.1c-0.2,0-0.3,0-0.5,0c-0.2,0-0.4,0-0.6,0.1c-0.2,0-0.4,0.1-0.5,0.2s-0.3,0.2-0.4,0.4
		c-0.1,0.2-0.1,0.3-0.1,0.5c0,0.2,0,0.3,0.1,0.4c0,0.1,0.1,0.2,0.2,0.3c0.1,0.1,0.2,0.2,0.3,0.2c0.1,0.1,0.2,0.1,0.4,0.2
		c0.1,0,0.2,0.1,0.3,0.1c0.1,0,0.2,0.1,0.3,0.1c0.1,0,0.2,0.1,0.2,0.1c0.1,0,0.1,0.1,0.1,0.2c0,0.1-0.1,0.2-0.2,0.3
		c-0.1,0.1-0.3,0.1-0.5,0.1c-0.2,0-0.4,0-0.5-0.1c-0.2-0.1-0.4-0.1-0.6-0.3v0.9C221,73.9,221.4,73.9,221.8,73.9"/>
	<path class="st0" d="M188.4,38.2c-1.1,0-1.9,0.8-1.9,1.9c0,1,0.9,1.9,1.9,1.9c0.5,0,1-0.2,1.4-0.6l0.3,0.4
		c-0.5,0.4-1.1,0.7-1.8,0.7c-1.4,0-2.4-1.1-2.4-2.4c0-1.3,1.1-2.4,2.5-2.4c0.6,0,1.3,0.3,1.7,0.7l-0.3,0.4
		C189.5,38.4,188.9,38.2,188.4,38.2"/>
	<path class="st0" d="M196.2,40.1c0,1.3-1.1,2.4-2.5,2.4c-1.4,0-2.5-1.1-2.5-2.4c0-1.3,1.1-2.4,2.5-2.4
		C195.1,37.7,196.2,38.8,196.2,40.1 M191.8,40.1c0,1,0.9,1.9,1.9,1.9s1.9-0.8,1.9-1.9c0-1-0.9-1.9-1.9-1.9S191.8,39.1,191.8,40.1"/>
	<polygon class="st0" points="198.4,37.7 201.2,41.6 201.2,37.7 201.8,37.7 201.8,42.5 201.2,42.5 198.4,38.6 198.4,42.5 
		197.8,42.5 197.8,37.7 	"/>
	<path class="st0" d="M205.2,38.2c-0.6,0-1,0.2-1,0.6c0,1.2,2.7,0.6,2.6,2.3c0,0.8-0.7,1.3-1.7,1.3c-0.7,0-1.4-0.3-1.8-0.7l0.2-0.5
		c0.4,0.4,1,0.7,1.6,0.7c0.7,0,1.1-0.3,1.1-0.7c0-1.3-2.6-0.6-2.6-2.3c0-0.7,0.7-1.2,1.6-1.2c0.5,0,1.1,0.2,1.5,0.4l-0.2,0.5
		C206.1,38.4,205.6,38.2,205.2,38.2"/>
	<polygon class="st0" points="211.7,37.7 211.7,38.2 210.1,38.2 210.1,42.5 209.6,42.5 209.6,38.2 208,38.2 208,37.7 	"/>
	<path class="st0" d="M216.2,42.5l-1-1.5c-0.1,0-0.2,0-0.3,0h-1.3v1.5h-0.5v-4.7h1.8c1.2,0,1.9,0.6,1.9,1.6c0,0.8-0.4,1.3-1.1,1.5
		l1.1,1.6H216.2z M214.9,40.5c0.9,0,1.3-0.4,1.3-1.1c0-0.7-0.5-1.1-1.3-1.1h-1.3v2.2H214.9z"/>
	<path class="st0" d="M220.5,42c0.9,0,1.4-0.5,1.4-1.5v-2.8h0.5v2.8c0,1.2-0.7,2-2,2c-1.2,0-2-0.7-2-2v-2.8h0.5v2.8
		C219.1,41.5,219.6,42,220.5,42"/>
	<polygon class="st0" points="226.2,40.8 226.2,42.5 225.7,42.5 225.7,40.8 223.8,37.7 224.4,37.7 225.9,40.2 227.4,37.7 228,37.7 	
		"/>
	<polygon class="st0" points="232.6,37.7 232.6,38.2 229.9,38.2 229.9,39.8 232.3,39.8 232.3,40.3 229.9,40.3 229.9,42 232.7,42 
		232.7,42.5 229.4,42.5 229.4,37.7 	"/>
</g>
</svg>
